<?xml version="1.0" standalone="no"?><!DOCTYPE svg PUBLIC "-//W3C//DTD SVG 1.1//EN" "http://www.w3.org/Graphics/SVG/1.1/DTD/svg11.dtd"><svg t="1733670724856" class="icon" viewBox="0 0 1024 1024" version="1.1" xmlns="http://www.w3.org/2000/svg" p-id="1559" xmlns:xlink="http://www.w3.org/1999/xlink" width="200" height="200"><path d="M1011.5 347.6c-3.2-139.9-125.2-166.7-125.2-166.7s-95.2-0.5-218.8-1.6l89.9-86.8s14.2-17.9-10-37.9-25.8-11-34.2-5.8c-7.4 5.3-115.2 111-134.1 129.9-48.9 0-99.9-0.5-149.4-0.5h17.4S318.2 50.9 309.8 45.1 300.4 31 275.7 51c-24.2 20-10 37.9-10 37.9l92 89.4c-99.9 0-186.2 0.5-226.2 2.1C2.2 217.7 12.2 347.6 12.2 347.6s1.6 278.8 0 419.7c14.2 141 122.5 163.6 122.5 163.6s43.1 1.1 75.2 1.1c3.2 8.9 5.8 53.1 55.2 53.1 48.9 0 55.2-53.1 55.2-53.1s360.3-1.6 390.3-1.6c1.6 15.3 8.9 55.8 58.4 55.2 48.9-1.1 52.6-58.4 52.6-58.4s16.8-1.6 66.8 0c116.8-21.6 123.6-158.3 123.6-158.3s-2.1-281.4-0.5-421.3zM911 793.6c0 22.1-17.4 40-38.9 40h-710c-21.6 0-38.9-17.9-38.9-40V322.9c0-22.1 17.4-40 38.9-40h710c21.6 0 38.9 17.9 38.9 40v470.7z" fill="#1296DB" p-id="1560"></path><path d="M410.5 420l-200.1 38.3 17.1 75.1 198.1-38.3-15.1-75.1z m107.9 199.1c-48.9 104.8-92.7 25.7-92.7 25.7L392.9 666s64.5 88.2 126 21.2c72.6 67 128-21.7 128-21.7l-29.7-19.2c0-0.5-51.9 74.6-98.8-27.2z m98.8-124l198.6 38.3 16.6-75.1L632.8 420l-15.6 75.1z" fill="#1296DB" p-id="1561"></path></svg>